<mxfile host="app.diagrams.net" agent="Mozilla/5.0 (Windows NT 10.0; Win64; x64) AppleWebKit/537.36 (KHTML, like Gecko) Chrome/130.0.0.0 Safari/537.36" version="24.8.3">
  <diagram name="Page-1" id="-rFiT2QOCS_2W7RfbsIS">
    <mxGraphModel dx="1861" dy="412" grid="1" gridSize="10" guides="1" tooltips="1" connect="1" arrows="1" fold="1" page="1" pageScale="1" pageWidth="827" pageHeight="1169" math="0" shadow="0">
      <root>
        <mxCell id="0" />
        <mxCell id="1" parent="0" />
        <mxCell id="0xx_-24tjpAZTRa8xS2v-3" value="" style="group" parent="1" vertex="1" connectable="0">
          <mxGeometry x="-820" y="160" width="2470" height="800" as="geometry" />
        </mxCell>
        <mxCell id="SzXXKODQA_d7fAglRIwC-3" value="" style="rounded=1;whiteSpace=wrap;html=1;fillColor=#b0e3e6;strokeColor=#0e8088;" parent="0xx_-24tjpAZTRa8xS2v-3" vertex="1">
          <mxGeometry x="126.66666666666664" y="209.82956955263916" width="237.49999999999997" height="393.446953631574" as="geometry" />
        </mxCell>
        <mxCell id="WVmnRhe4FLrsOpsETF_J-13" value="" style="edgeStyle=orthogonalEdgeStyle;rounded=0;orthogonalLoop=1;jettySize=auto;html=1;" parent="0xx_-24tjpAZTRa8xS2v-3" source="SzXXKODQA_d7fAglRIwC-4" target="SzXXKODQA_d7fAglRIwC-6" edge="1">
          <mxGeometry relative="1" as="geometry" />
        </mxCell>
        <mxCell id="SzXXKODQA_d7fAglRIwC-4" value="&lt;font style=&quot;font-size: 24px;&quot;&gt;Spatial, Environnemental and Climatic data&lt;/font&gt;" style="rounded=1;whiteSpace=wrap;html=1;fillColor=#dae8fc;strokeColor=#6c8ebf;" parent="0xx_-24tjpAZTRa8xS2v-3" vertex="1">
          <mxGeometry x="150.4166666666666" y="266.0362772142925" width="189.99999999999991" height="112.41341532330685" as="geometry" />
        </mxCell>
        <mxCell id="SzXXKODQA_d7fAglRIwC-5" value="&lt;font style=&quot;font-size: 24px;&quot;&gt;Partial mitochondrial 16S rRNA gene sequences&lt;/font&gt;" style="rounded=1;whiteSpace=wrap;html=1;fillColor=#dae8fc;strokeColor=#6c8ebf;" parent="0xx_-24tjpAZTRa8xS2v-3" vertex="1">
          <mxGeometry x="150.4166666666666" y="434.65640019925286" width="189.99999999999991" height="112.41341532330685" as="geometry" />
        </mxCell>
        <mxCell id="SzXXKODQA_d7fAglRIwC-6" value="&lt;div style=&quot;&quot;&gt;&lt;span style=&quot;background-color: initial;&quot;&gt;&lt;font style=&quot;font-size: 24px;&quot;&gt;&lt;u style=&quot;&quot;&gt;Removing variables&lt;/u&gt;:&lt;/font&gt;&lt;/span&gt;&lt;/div&gt;&lt;div style=&quot;&quot;&gt;&lt;span style=&quot;background-color: initial;&quot;&gt;&lt;font style=&quot;font-size: 18px;&quot;&gt;&lt;br&gt;&lt;/font&gt;&lt;/span&gt;&lt;/div&gt;&lt;div style=&quot;&quot;&gt;&lt;font style=&quot;font-size: 24px;&quot;&gt;&lt;span style=&quot;background-color: initial;&quot;&gt;&lt;font style=&quot;&quot;&gt;Unrelated to genetic sequences and habitat variables&lt;/font&gt;&lt;br&gt;&lt;/span&gt;&lt;/font&gt;&lt;/div&gt;&lt;div style=&quot;&quot;&gt;&lt;font style=&quot;font-size: 24px;&quot;&gt;&lt;font style=&quot;&quot;&gt;&lt;span style=&quot;background-color: initial;&quot;&gt;Invariable (categorical data)&lt;/span&gt;&lt;br&gt;&lt;span style=&quot;background-color: initial;&quot;&gt;All missing data&lt;/span&gt;&lt;br&gt;&lt;span style=&quot;background-color: initial;&quot;&gt;Low variance (threshold&amp;nbsp;&lt;/span&gt;&lt;u style=&quot;background-color: initial;&quot;&gt;&amp;lt;&lt;/u&gt;&lt;span style=&quot;background-color: initial;&quot;&gt; 0.1)&lt;/span&gt;&lt;/font&gt;&lt;br&gt;&lt;/font&gt;&lt;/div&gt;&lt;div style=&quot;&quot;&gt;&lt;span style=&quot;background-color: initial;&quot;&gt;&lt;font style=&quot;font-size: 24px;&quot;&gt;&lt;font style=&quot;&quot;&gt;High intercorrelation (numerical, threshold &amp;gt; 0.9&lt;/font&gt;&lt;font style=&quot;&quot;&gt;)&lt;/font&gt;&lt;/font&gt;&lt;/span&gt;&lt;/div&gt;" style="rounded=1;whiteSpace=wrap;html=1;fillColor=#FF9999;strokeColor=#b85450;align=center;" parent="0xx_-24tjpAZTRa8xS2v-3" vertex="1">
          <mxGeometry x="406.5" y="198.54" width="410.8" height="247.41" as="geometry" />
        </mxCell>
        <mxCell id="SzXXKODQA_d7fAglRIwC-53" value="" style="edgeStyle=orthogonalEdgeStyle;rounded=0;orthogonalLoop=1;jettySize=auto;html=1;" parent="0xx_-24tjpAZTRa8xS2v-3" source="SzXXKODQA_d7fAglRIwC-7" target="SzXXKODQA_d7fAglRIwC-25" edge="1">
          <mxGeometry relative="1" as="geometry" />
        </mxCell>
        <mxCell id="SzXXKODQA_d7fAglRIwC-7" value="&lt;font style=&quot;font-size: 24px;&quot;&gt;&lt;i style=&quot;&quot;&gt;aPhyloGeo&lt;/i&gt;&amp;nbsp;&lt;/font&gt;" style="rounded=1;whiteSpace=wrap;html=1;fillColor=#FFB366;strokeColor=#b46504;" parent="0xx_-24tjpAZTRa8xS2v-3" vertex="1">
          <mxGeometry x="878.7499999999997" y="275.40406182456815" width="300.8333333333332" height="262.297969087716" as="geometry" />
        </mxCell>
        <mxCell id="SzXXKODQA_d7fAglRIwC-8" value="" style="endArrow=classic;html=1;rounded=0;entryX=0;entryY=0.814;entryDx=0;entryDy=0;entryPerimeter=0;" parent="0xx_-24tjpAZTRa8xS2v-3" target="SzXXKODQA_d7fAglRIwC-7" edge="1">
          <mxGeometry width="50" height="50" relative="1" as="geometry">
            <mxPoint x="340.4166666666665" y="490.1136850920841" as="sourcePoint" />
            <mxPoint x="878.7499999999997" y="488.9895509388512" as="targetPoint" />
          </mxGeometry>
        </mxCell>
        <mxCell id="SzXXKODQA_d7fAglRIwC-9" value="&lt;div style=&quot;margin-top: 0px; margin-bottom: 0px; padding-left: 0px; padding-right: 0px;&quot;&gt;&lt;font style=&quot;font-size: 24px;&quot;&gt;&lt;span style=&quot;background-color: initial;&quot;&gt;window size&lt;br&gt;&lt;/span&gt;&lt;span style=&quot;background-color: initial;&quot;&gt;step size&lt;br&gt;&lt;/span&gt;&lt;span style=&quot;background-color: initial;&quot;&gt;rate similarity&lt;/span&gt;&lt;br style=&quot;&quot;&gt;&lt;span style=&quot;background-color: initial;&quot;&gt;bootstrap amount&lt;/span&gt;&lt;br style=&quot;&quot;&gt;&lt;span style=&quot;background-color: initial;&quot;&gt;distance threshold&lt;/span&gt;&lt;/font&gt;&lt;br&gt;&lt;/div&gt;" style="rounded=1;whiteSpace=wrap;html=1;align=center;fillColor=#FFCC99;strokeColor=#d79b00;" parent="0xx_-24tjpAZTRa8xS2v-3" vertex="1">
          <mxGeometry x="878.7499999999997" y="537.7020309122842" width="300.8333333333332" height="262.297969087716" as="geometry" />
        </mxCell>
        <mxCell id="SzXXKODQA_d7fAglRIwC-44" value="" style="edgeStyle=orthogonalEdgeStyle;rounded=0;orthogonalLoop=1;jettySize=auto;html=1;" parent="0xx_-24tjpAZTRa8xS2v-3" source="SzXXKODQA_d7fAglRIwC-12" target="SzXXKODQA_d7fAglRIwC-39" edge="1">
          <mxGeometry relative="1" as="geometry" />
        </mxCell>
        <mxCell id="SzXXKODQA_d7fAglRIwC-12" value="&lt;font style=&quot;font-size: 24px;&quot;&gt;Distance calculation and comparison between genetic and habitat variable trees&lt;/font&gt;" style="rounded=1;whiteSpace=wrap;html=1;fillColor=#fff2cc;strokeColor=#d6b656;" parent="0xx_-24tjpAZTRa8xS2v-3" vertex="1">
          <mxGeometry x="1741.666666666666" y="350.3463387067727" width="332.49999999999994" height="112.41341532330685" as="geometry" />
        </mxCell>
        <mxCell id="SzXXKODQA_d7fAglRIwC-13" value="&lt;font style=&quot;font-size: 36px;&quot;&gt;Database&amp;nbsp;&lt;/font&gt;" style="text;html=1;align=center;verticalAlign=middle;whiteSpace=wrap;rounded=0;fontSize=16;" parent="0xx_-24tjpAZTRa8xS2v-3" vertex="1">
          <mxGeometry x="197.91666666666669" y="18.735569220551117" width="94.99999999999996" height="56.206707661653425" as="geometry" />
        </mxCell>
        <mxCell id="SzXXKODQA_d7fAglRIwC-14" value="&lt;font style=&quot;font-size: 36px;&quot;&gt;Data preprocessing&lt;/font&gt;" style="text;html=1;align=center;verticalAlign=middle;whiteSpace=wrap;rounded=0;fontSize=16;" parent="0xx_-24tjpAZTRa8xS2v-3" vertex="1">
          <mxGeometry x="445.81" width="319.17" height="93.68" as="geometry" />
        </mxCell>
        <mxCell id="SzXXKODQA_d7fAglRIwC-15" value="&lt;font style=&quot;font-size: 36px;&quot;&gt;Output&lt;/font&gt;" style="text;html=1;align=center;verticalAlign=middle;whiteSpace=wrap;rounded=0;fontSize=16;" parent="0xx_-24tjpAZTRa8xS2v-3" vertex="1">
          <mxGeometry x="1864.6858333333328" y="93.65956283629794" width="91.04166666666664" height="93.67784610275572" as="geometry" />
        </mxCell>
        <mxCell id="SzXXKODQA_d7fAglRIwC-16" value="&lt;font style=&quot;font-size: 36px;&quot;&gt;*Parameters&lt;/font&gt;" style="text;html=1;align=center;verticalAlign=middle;whiteSpace=wrap;rounded=0;fontSize=16;rotation=0;" parent="0xx_-24tjpAZTRa8xS2v-3" vertex="1">
          <mxGeometry x="701.6199999999997" y="565.805384743111" width="142.49999999999994" height="93.67784610275572" as="geometry" />
        </mxCell>
        <mxCell id="SzXXKODQA_d7fAglRIwC-17" value="" style="image;html=1;image=img/lib/clip_art/computers/Database_Minus_128x128.png" parent="0xx_-24tjpAZTRa8xS2v-3" vertex="1">
          <mxGeometry x="559.82578313253" y="87.56309773433108" width="104.15662650602407" height="93.12795714613254" as="geometry" />
        </mxCell>
        <mxCell id="SzXXKODQA_d7fAglRIwC-19" value="" style="outlineConnect=0;dashed=0;verticalLabelPosition=bottom;verticalAlign=top;align=center;html=1;shape=mxgraph.aws3.android;fillColor=#205E00;gradientColor=none;" parent="0xx_-24tjpAZTRa8xS2v-3" vertex="1">
          <mxGeometry x="987.92" y="170" width="82.5" height="87.3" as="geometry" />
        </mxCell>
        <mxCell id="SzXXKODQA_d7fAglRIwC-20" value="" style="shape=image;html=1;verticalAlign=top;verticalLabelPosition=bottom;labelBackgroundColor=#ffffff;imageAspect=0;aspect=fixed;image=https://cdn1.iconfinder.com/data/icons/CrystalClear/128x128/apps/package_utilities.png" parent="0xx_-24tjpAZTRa8xS2v-3" vertex="1">
          <mxGeometry x="724.73" y="640.0000000000001" width="96.27" height="96.27" as="geometry" />
        </mxCell>
        <mxCell id="SzXXKODQA_d7fAglRIwC-21" value="" style="shape=image;html=1;verticalAlign=top;verticalLabelPosition=bottom;labelBackgroundColor=#ffffff;imageAspect=0;aspect=fixed;image=https://cdn2.iconfinder.com/data/icons/css-vol-2/24/list-tree-128.png" parent="0xx_-24tjpAZTRa8xS2v-3" vertex="1">
          <mxGeometry x="1860.1" y="198.54" width="95.63" height="95.63" as="geometry" />
        </mxCell>
        <mxCell id="SzXXKODQA_d7fAglRIwC-43" value="" style="edgeStyle=orthogonalEdgeStyle;rounded=0;orthogonalLoop=1;jettySize=auto;html=1;" parent="0xx_-24tjpAZTRa8xS2v-3" source="SzXXKODQA_d7fAglRIwC-25" target="SzXXKODQA_d7fAglRIwC-12" edge="1">
          <mxGeometry relative="1" as="geometry" />
        </mxCell>
        <mxCell id="SzXXKODQA_d7fAglRIwC-25" value="&lt;div style=&quot;margin-top: 0px; margin-bottom: 0px; padding-left: 0px; padding-right: 0px;&quot;&gt;&lt;font style=&quot;font-size: 24px;&quot;&gt;&lt;span style=&quot;background-color: initial;&quot;&gt;Robinson-Foulds distance&lt;br&gt;&lt;/span&gt;&lt;span style=&quot;background-color: initial;&quot;&gt;Normalized Robinson-Foulds distance&lt;br&gt;&lt;/span&gt;Euclidean distance&lt;/font&gt;&lt;br&gt;&lt;/div&gt;" style="rounded=1;whiteSpace=wrap;html=1;align=center;fillColor=#CCCCCC;strokeColor=#666666;fontColor=#333333;" parent="0xx_-24tjpAZTRa8xS2v-3" vertex="1">
          <mxGeometry x="1257.92" y="309.52" width="413.33" height="194.91" as="geometry" />
        </mxCell>
        <mxCell id="SzXXKODQA_d7fAglRIwC-39" value="&lt;font style=&quot;font-size: 24px;&quot;&gt;Identification of the habitat variables most divergent from a specific sequence&lt;/font&gt;" style="rounded=1;whiteSpace=wrap;html=1;align=center;fillColor=#e1d5e7;strokeColor=#9673a6;" parent="0xx_-24tjpAZTRa8xS2v-3" vertex="1">
          <mxGeometry x="2153.333333333333" y="338.63660794392814" width="316.6666666666665" height="135.8328768489958" as="geometry" />
        </mxCell>
        <mxCell id="SzXXKODQA_d7fAglRIwC-47" value="" style="shape=image;html=1;verticalAlign=top;verticalLabelPosition=bottom;labelBackgroundColor=#ffffff;imageAspect=0;aspect=fixed;image=https://cdn1.iconfinder.com/data/icons/competitive-strategy-and-corporate-training/512/597_Command_computer_function_process_progress_game_gaming_genres_programing-128.png" parent="0xx_-24tjpAZTRa8xS2v-3" vertex="1">
          <mxGeometry x="1415.54" y="180.68" width="98.1" height="98.1" as="geometry" />
        </mxCell>
        <mxCell id="SzXXKODQA_d7fAglRIwC-54" value="" style="points=[[0.5,0.37,0],[1,0.09,0],[1,0.9,0],[0,0.08,0],[0,0.91,0],[0.5,0.61,0],[0.045,0.5,0],[0.96,0.5,0]];verticalLabelPosition=bottom;sketch=0;html=1;verticalAlign=top;aspect=fixed;align=center;pointerEvents=1;shape=mxgraph.cisco19.cisco_dna;fillColor=#005073;strokeColor=none;" parent="0xx_-24tjpAZTRa8xS2v-3" vertex="1">
          <mxGeometry x="5.42" y="460.86" width="100" height="60" as="geometry" />
        </mxCell>
        <mxCell id="SzXXKODQA_d7fAglRIwC-57" value="" style="verticalLabelPosition=bottom;verticalAlign=top;html=1;shape=mxgraph.basic.sun;fillColor=#FF8000;" parent="0xx_-24tjpAZTRa8xS2v-3" vertex="1">
          <mxGeometry x="7.916666666666637" y="266.0362772142925" width="94.99999999999996" height="101.05966037565284" as="geometry" />
        </mxCell>
        <mxCell id="SzXXKODQA_d7fAglRIwC-56" value="" style="image;aspect=fixed;perimeter=ellipsePerimeter;html=1;align=center;shadow=0;dashed=0;spacingTop=3;image=img/lib/active_directory/internet_cloud.svg;" parent="0xx_-24tjpAZTRa8xS2v-3" vertex="1">
          <mxGeometry x="1" y="266.04" width="69" height="43.48" as="geometry" />
        </mxCell>
        <mxCell id="SzXXKODQA_d7fAglRIwC-58" value="&lt;font style=&quot;font-size: 36px;&quot;&gt;Software&lt;/font&gt;" style="text;html=1;align=center;verticalAlign=middle;whiteSpace=wrap;rounded=0;fontSize=16;" parent="0xx_-24tjpAZTRa8xS2v-3" vertex="1">
          <mxGeometry x="910.4166666666666" y="93.65558817536252" width="237.49999999999997" height="93.67784610275572" as="geometry" />
        </mxCell>
        <mxCell id="SzXXKODQA_d7fAglRIwC-59" value="&lt;font style=&quot;font-size: 36px;&quot;&gt;Metrics&lt;/font&gt;" style="text;html=1;align=center;verticalAlign=middle;whiteSpace=wrap;rounded=0;fontSize=16;" parent="0xx_-24tjpAZTRa8xS2v-3" vertex="1">
          <mxGeometry x="1345.8448594377505" y="93.66429813414092" width="237.49999999999997" height="93.67784610275572" as="geometry" />
        </mxCell>
        <mxCell id="SzXXKODQA_d7fAglRIwC-61" value="&lt;font style=&quot;font-size: 36px;&quot;&gt;Analyzes&lt;/font&gt;" style="text;html=1;align=center;verticalAlign=middle;whiteSpace=wrap;rounded=0;fontSize=16;" parent="0xx_-24tjpAZTRa8xS2v-3" vertex="1">
          <mxGeometry x="2265.405833333333" y="93.65956283629794" width="91.04166666666664" height="93.67784610275572" as="geometry" />
        </mxCell>
        <mxCell id="SzXXKODQA_d7fAglRIwC-55" value="" style="points=[[0.5,0.37,0],[1,0.09,0],[1,0.9,0],[0,0.08,0],[0,0.91,0],[0.5,0.61,0],[0.045,0.5,0],[0.96,0.5,0]];verticalLabelPosition=bottom;sketch=0;html=1;verticalAlign=top;aspect=fixed;align=center;pointerEvents=1;shape=mxgraph.cisco19.cisco_dna;fillColor=#005073;strokeColor=none;" parent="0xx_-24tjpAZTRa8xS2v-3" vertex="1">
          <mxGeometry x="2278.45" y="220" width="47.86" height="28.71" as="geometry" />
        </mxCell>
        <mxCell id="SzXXKODQA_d7fAglRIwC-66" value="" style="sketch=0;outlineConnect=0;fontColor=#232F3E;gradientColor=none;fillColor=#232F3D;strokeColor=none;dashed=0;verticalLabelPosition=bottom;verticalAlign=top;align=center;html=1;fontSize=12;fontStyle=0;aspect=fixed;pointerEvents=1;shape=mxgraph.aws4.magnifying_glass_2;" parent="0xx_-24tjpAZTRa8xS2v-3" vertex="1">
          <mxGeometry x="2266.89" y="198.54" width="89.56" height="89.56" as="geometry" />
        </mxCell>
        <mxCell id="SzXXKODQA_d7fAglRIwC-67" value="" style="image;aspect=fixed;perimeter=ellipsePerimeter;html=1;align=center;shadow=0;dashed=0;spacingTop=3;image=img/lib/active_directory/internet_cloud.svg;" parent="0xx_-24tjpAZTRa8xS2v-3" vertex="1">
          <mxGeometry x="47.5" y="319.56" width="62.5" height="39.38" as="geometry" />
        </mxCell>
        <mxCell id="SzXXKODQA_d7fAglRIwC-78" style="edgeStyle=orthogonalEdgeStyle;rounded=0;orthogonalLoop=1;jettySize=auto;html=1;exitX=0.5;exitY=1;exitDx=0;exitDy=0;" parent="0xx_-24tjpAZTRa8xS2v-3" edge="1">
          <mxGeometry relative="1" as="geometry">
            <mxPoint x="1603.1249999999993" y="78.68058500878114" as="sourcePoint" />
            <mxPoint x="1603.1249999999993" y="78.68058500878114" as="targetPoint" />
          </mxGeometry>
        </mxCell>
        <mxCell id="WVmnRhe4FLrsOpsETF_J-19" value="" style="edgeStyle=orthogonalEdgeStyle;rounded=0;orthogonalLoop=1;jettySize=auto;html=1;" parent="0xx_-24tjpAZTRa8xS2v-3" source="SzXXKODQA_d7fAglRIwC-6" edge="1">
          <mxGeometry relative="1" as="geometry">
            <mxPoint x="810.3087951807225" y="323.3215915959732" as="sourcePoint" />
            <mxPoint x="878.7545783132529" y="321.654125935344" as="targetPoint" />
            <Array as="points" />
          </mxGeometry>
        </mxCell>
        <mxCell id="WVmnRhe4FLrsOpsETF_J-20" value="" style="image;html=1;image=img/lib/clip_art/computers/Database_128x128.png" parent="0xx_-24tjpAZTRa8xS2v-3" vertex="1">
          <mxGeometry x="193.09638554216872" y="84.9345294620339" width="104.6327710843373" height="95.74587823332014" as="geometry" />
        </mxCell>
      </root>
    </mxGraphModel>
  </diagram>
</mxfile>
